<svg width="60" height="60" viewBox="0 0 60 60" fill="none" xmlns="http://www.w3.org/2000/svg">
<path opacity="0.2" d="M11.876 24.2539L2.35673 31.5635C2.32788 31.0442 2.31346 30.525 2.31346 30C2.30218 23.6796 4.4621 17.5471 8.43173 12.6289L11.876 24.2539ZM6.61154 44.8327C10.377 50.7639 16.2536 55.0446 23.0538 56.8096L18.8135 44.8327H6.61154ZM36.9606 56.8096C43.7608 55.0446 49.6374 50.7639 53.4029 44.8327H41.201L36.9606 56.8096ZM51.5683 12.6289L48.124 24.2539L57.6433 31.5635C57.6721 31.0442 57.6865 30.525 57.6865 30C57.6978 23.6796 55.5379 17.5471 51.5683 12.6289ZM40.4567 4.35001C33.7515 1.6269 26.2485 1.6269 19.5433 4.35001L30 11.5385L40.4567 4.35001ZM37.1308 39.2308L41.5384 26.3942L30 18.4615L18.4615 26.3942L22.8692 39.2308H37.1308Z" fill="#4ECB71"/>
<path d="M30 0C24.0666 0 18.2664 1.75947 13.3329 5.05591C8.39943 8.35235 4.55426 13.0377 2.28363 18.5195C0.0129985 24.0013 -0.581101 30.0333 0.576455 35.8527C1.73401 41.6721 4.59123 47.0176 8.78681 51.2132C12.9824 55.4088 18.3279 58.266 24.1473 59.4235C29.9667 60.5811 35.9987 59.987 41.4805 57.7164C46.9623 55.4457 51.6476 51.6006 54.9441 46.6671C58.2405 41.7336 60 35.9334 60 30C59.9916 22.0461 56.8282 14.4203 51.2039 8.79607C45.5797 3.1718 37.9539 0.00839948 30 0ZM52.0731 42.525H42.375L39.7038 38.8442L43.3471 28.2346L47.674 26.824L55.2433 32.6308C54.8851 36.1132 53.8054 39.4829 52.0731 42.525ZM4.7654 32.6308L12.3202 26.8269L16.6471 28.2375L20.2904 38.8471L17.625 42.525H7.92693C6.19255 39.4833 5.11092 36.1136 4.75097 32.6308H4.7654ZM7.65001 18.0231L9.23943 23.3885L4.8202 26.7606C5.212 23.701 6.16238 20.7394 7.62405 18.0231H7.65001ZM24.5192 36.9231L21.2135 27.3029L30 21.2625L38.7865 27.3029L35.4808 36.9231H24.5192ZM50.7894 23.3885L52.3788 18.0231C53.8405 20.7394 54.7909 23.701 55.1827 26.7606L50.7894 23.3885ZM49.001 13.1827L46.2577 22.4365L41.9106 23.8471L32.3077 17.2471V12.7529L40.699 6.98365C43.8596 8.46171 46.684 10.5714 48.9981 13.1827H49.001ZM35.2125 5.15481L30 8.7375L24.7875 5.15481C28.2253 4.43557 31.7747 4.43557 35.2125 5.15481ZM19.301 6.98365L27.6923 12.7529V17.2471L18.0923 23.8471L13.7452 22.4365L11.0019 13.1827C13.316 10.5714 16.1404 8.46171 19.301 6.98365ZM11.2933 47.1404H17.1692L19.2375 52.9875C16.2341 51.5741 13.5356 49.5879 11.2933 47.1404ZM24.8077 54.8452L21.3808 45.2048L24.0433 41.5385H35.9567L38.6192 45.2048L35.2067 54.8452C31.7729 55.5648 28.2271 55.5648 24.7933 54.8452H24.8077ZM40.7769 52.9875L42.8452 47.1404H48.7212C46.4746 49.5894 43.7711 51.5757 40.7625 52.9875H40.7769Z" fill="#4ECB71"/>
</svg>
